<?xml version="1.0" standalone="no"?><svg xmlns="http://www.w3.org/2000/svg" viewBox="0 0 1440 320"><path fill="#fa448e" fill-opacity="1" d="M0,128L40,122.7C80,117,160,107,240,133.3C320,160,400,224,480,240C560,256,640,224,720,197.3C800,171,880,149,960,154.7C1040,160,1120,192,1200,213.3C1280,235,1360,245,1400,250.7L1440,256L1440,320L1400,320C1360,320,1280,320,1200,320C1120,320,1040,320,960,320C880,320,800,320,720,320C640,320,560,320,480,320C400,320,320,320,240,320C160,320,80,320,40,320L0,320Z" data-darkreader-inline-fill="" style="--darkreader-inline-fill: #a20444;"></path></svg>