<?xml version="1.0" standalone="no"?><svg xmlns="http://www.w3.org/2000/svg" viewBox="0 0 1440 320"><path fill="#fb8c00" fill-opacity="1" d="M0,224L30,218.7C60,213,120,203,180,202.7C240,203,300,213,360,181.3C420,149,480,75,540,85.3C600,96,660,192,720,213.3C780,235,840,181,900,170.7C960,160,1020,192,1080,197.3C1140,203,1200,181,1260,176C1320,171,1380,181,1410,186.7L1440,192L1440,0L1410,0C1380,0,1320,0,1260,0C1200,0,1140,0,1080,0C1020,0,960,0,900,0C840,0,780,0,720,0C660,0,600,0,540,0C480,0,420,0,360,0C300,0,240,0,180,0C120,0,60,0,30,0L0,0Z"></path></svg>