<?xml version="1.0" standalone="no"?><svg xmlns="http://www.w3.org/2000/svg" viewBox="0 0 1440 320"><path fill="#fa448e" fill-opacity="1" d="M0,192L21.8,160C43.6,128,87,64,131,53.3C174.5,43,218,85,262,96C305.5,107,349,85,393,106.7C436.4,128,480,192,524,208C567.3,224,611,192,655,202.7C698.2,213,742,267,785,256C829.1,245,873,171,916,122.7C960,75,1004,53,1047,90.7C1090.9,128,1135,224,1178,256C1221.8,288,1265,256,1309,229.3C1352.7,203,1396,181,1418,170.7L1440,160L1440,0L1418.2,0C1396.4,0,1353,0,1309,0C1265.5,0,1222,0,1178,0C1134.5,0,1091,0,1047,0C1003.6,0,960,0,916,0C872.7,0,829,0,785,0C741.8,0,698,0,655,0C610.9,0,567,0,524,0C480,0,436,0,393,0C349.1,0,305,0,262,0C218.2,0,175,0,131,0C87.3,0,44,0,22,0L0,0Z" data-darkreader-inline-fill="" style="--darkreader-inline-fill: #a20444;"></path></svg>